<?xml version="1.0" standalone="no"?>
<!DOCTYPE svg PUBLIC "-//W3C//DTD SVG 20010904//EN"
 "http://www.w3.org/TR/2001/REC-SVG-20010904/DTD/svg10.dtd">
<svg version="1.0" xmlns="http://www.w3.org/2000/svg"
 width="500.000000pt" height="500.000000pt" viewBox="0 0 500.000000 500.000000"
 preserveAspectRatio="xMidYMid meet">
<metadata>
Created by potrace 1.11, written by Peter Selinger 2001-2013
</metadata>
<g transform="translate(0.000000,500.000000) scale(0.100000,-0.100000)"
fill="#000000" stroke="none">
<path d="M739 4098 c0 -7 -2 -20 -4 -28 -2 -8 -7 -28 -10 -45 -3 -16 -32 -154
-65 -305 -32 -151 -61 -286 -63 -300 -3 -14 -15 -70 -26 -126 -29 -137 -25
-119 -66 -309 -52 -242 -72 -336 -96 -450 -11 -55 -24 -116 -29 -135 -5 -19
-12 -51 -15 -70 -3 -19 -11 -55 -16 -80 -6 -25 -13 -55 -15 -66 -2 -12 -22
-104 -43 -205 -22 -101 -42 -195 -45 -209 -2 -14 -18 -87 -35 -162 -16 -75
-33 -155 -36 -177 l-6 -41 310 0 c170 0 312 4 315 8 3 5 7 19 9 33 3 13 19 94
37 179 17 85 34 164 36 175 2 11 13 61 24 110 21 98 70 331 74 355 3 13 43 15
290 17 300 2 379 9 486 44 329 108 616 402 729 747 98 301 30 643 -169 851
-97 101 -198 159 -326 186 -94 20 -1244 22 -1245 3z m1048 -574 c62 -49 88
-112 90 -224 4 -146 -29 -259 -104 -357 -44 -57 -53 -66 -118 -100 l-50 -27
-248 -1 c-137 0 -250 2 -253 6 -2 4 10 74 27 156 39 186 38 184 43 208 3 11
20 96 40 190 20 93 36 172 36 176 0 4 112 6 249 5 l249 -1 39 -31z"/>
<path d="M3538 3435 c-2 -2 -23 -6 -48 -10 -131 -18 -349 -112 -462 -198 -266
-202 -441 -488 -502 -822 -15 -84 -19 -125 -18 -235 2 -261 75 -463 222 -610
127 -128 272 -182 463 -174 51 2 107 8 125 13 17 5 32 8 32 6 0 -8 147 48 204
76 97 49 203 139 259 218 l18 26 -5 -25 c-3 -14 -10 -50 -16 -80 -6 -30 -13
-70 -16 -88 -9 -56 -52 -172 -88 -236 -124 -219 -378 -333 -646 -291 -30 5
-57 9 -60 10 -3 1 -18 5 -35 10 -97 25 -231 119 -305 212 l-25 32 -197 -166
-198 -165 33 -46 c53 -74 153 -168 231 -217 74 -46 201 -98 266 -109 19 -3 46
-8 60 -11 143 -29 402 -22 575 15 281 62 486 170 670 355 184 184 292 390 341
653 3 12 25 116 49 230 24 114 46 218 49 232 8 39 15 70 20 88 5 16 8 31 22
102 2 14 11 57 20 95 8 39 16 79 19 90 2 11 27 128 55 260 28 132 53 249 56
260 2 11 10 52 18 90 9 39 18 81 21 95 2 14 9 48 15 75 6 28 12 59 14 70 3 11
10 44 16 73 7 29 10 56 7 58 -6 6 -517 7 -523 1 -3 -2 -6 -13 -8 -23 -8 -41
-58 -260 -62 -276 -4 -12 -16 4 -41 53 -66 127 -189 226 -329 265 -50 13 -286
29 -296 19z m227 -531 c76 -19 160 -96 206 -189 47 -96 47 -133 0 -350 -23
-104 -46 -201 -52 -215 -20 -52 -154 -178 -241 -228 -164 -93 -361 -58 -457
82 -172 250 -31 697 273 866 79 44 182 57 271 34z"/>
</g>
</svg>
