<svg version="1" xmlns="http://www.w3.org/2000/svg" width="666.667" height="666.667" viewBox="0 0 500.000000 500.000000"><path d="M73.9 90.2c0 .7-.2 2-.4 2.8-.2.8-.7 2.8-1 4.5-.3 1.6-3.2 15.4-6.5 30.5-3.2 15.1-6.1 28.6-6.3 30-.3 1.4-1.5 7-2.6 12.6-2.9 13.7-2.5 11.9-6.6 30.9-5.2 24.2-7.2 33.6-9.6 45-1.1 5.5-2.4 11.6-2.9 13.5-.5 1.9-1.2 5.1-1.5 7-.3 1.9-1.1 5.5-1.6 8-.6 2.5-1.3 5.5-1.5 6.6-.2 1.2-2.2 10.4-4.3 20.5-2.2 10.1-4.2 19.5-4.5 20.9-.2 1.4-1.8 8.7-3.5 16.2-1.6 7.5-3.3 15.5-3.6 17.7l-.6 4.1h31c17 0 31.2-.4 31.5-.8.3-.5.7-1.9.9-3.3.3-1.3 1.9-9.4 3.7-17.9 1.7-8.5 3.4-16.4 3.6-17.5.2-1.1 1.3-6.1 2.4-11 2.1-9.8 7-33.1 7.4-35.5.3-1.3 4.3-1.5 29-1.7 30-.2 37.9-.9 48.6-4.4 32.9-10.8 61.6-40.2 72.9-74.7 9.8-30.1 3-64.3-16.9-85.1-9.7-10.1-19.8-15.9-32.6-18.6-9.4-2-124.4-2.2-124.5-.3zm104.8 57.4c6.2 4.9 8.8 11.2 9 22.4.4 14.6-2.9 25.9-10.4 35.7-4.4 5.7-5.3 6.6-11.8 10l-5 2.7-24.8.1c-13.7 0-25-.2-25.3-.6-.2-.4 1-7.4 2.7-15.6 3.9-18.6 3.8-18.4 4.3-20.8.3-1.1 2-9.6 4-19 2-9.3 3.6-17.2 3.6-17.6 0-.4 11.2-.6 24.9-.5l24.9.1 3.9 3.1zM353.8 156.5c-.2.2-2.3.6-4.8 1-13.1 1.8-34.9 11.2-46.2 19.8-26.6 20.2-44.1 48.8-50.2 82.2-1.5 8.4-1.9 12.5-1.8 23.5.2 26.1 7.5 46.3 22.2 61 12.7 12.8 27.2 18.2 46.3 17.4 5.1-.2 10.7-.8 12.5-1.3 1.7-.5 3.2-.8 3.2-.6 0 .8 14.7-4.8 20.4-7.6 9.7-4.9 20.3-13.9 25.9-21.8l1.8-2.6-.5 2.5c-.3 1.4-1 5-1.6 8-.6 3-1.3 7-1.6 8.8-.9 5.6-5.2 17.2-8.8 23.6-12.4 21.9-37.8 33.3-64.6 29.1-3-.5-5.7-.9-6-1-.3-.1-1.8-.5-3.5-1-9.7-2.5-23.1-11.9-30.5-21.2l-2.5-3.2-19.7 16.6-19.8 16.5 3.3 4.6c5.3 7.4 15.3 16.8 23.1 21.7 7.4 4.6 20.1 9.8 26.6 10.9 1.9.3 4.6.8 6 1.1 14.3 2.9 40.2 2.2 57.5-1.5 28.1-6.2 48.6-17 67-35.5 18.4-18.4 29.2-39 34.1-65.3.3-1.2 2.5-11.6 4.9-23 2.4-11.4 4.6-21.8 4.9-23.2.8-3.9 1.5-7 2-8.8.5-1.6.8-3.1 2.2-10.2.2-1.4 1.1-5.7 2-9.5.8-3.9 1.6-7.9 1.9-9 .2-1.1 2.7-12.8 5.5-26s5.3-24.9 5.6-26c.2-1.1 1-5.2 1.8-9 .9-3.9 1.8-8.1 2.1-9.5.2-1.4.9-4.8 1.5-7.5.6-2.8 1.2-5.9 1.4-7 .3-1.1 1-4.4 1.6-7.3.7-2.9 1-5.6.7-5.8-.6-.6-51.7-.7-52.3-.1-.3.2-.6 1.3-.8 2.3-.8 4.1-5.8 26-6.2 27.6-.4 1.2-1.6-.4-4.1-5.3-6.6-12.7-18.9-22.6-32.9-26.5-5-1.3-28.6-2.9-29.6-1.9zm22.7 53.1c7.6 1.9 16 9.6 20.6 18.9 4.7 9.6 4.7 13.3 0 35-2.3 10.4-4.6 20.1-5.2 21.5-2 5.2-15.4 17.8-24.1 22.8-16.4 9.3-36.1 5.8-45.7-8.2-17.2-25-3.1-69.7 27.3-86.6 7.9-4.4 18.2-5.7 27.1-3.4z"/></svg>